<?xml version="1.0" standalone="no"?>
<!DOCTYPE svg PUBLIC "-//W3C//DTD SVG 20010904//EN"
 "http://www.w3.org/TR/2001/REC-SVG-20010904/DTD/svg10.dtd">
<svg version="1.0" xmlns="http://www.w3.org/2000/svg"
 width="753.000000pt" height="753.000000pt" viewBox="0 0 753.000000 753.000000"
 preserveAspectRatio="xMidYMid meet">
<metadata>
Created by potrace 1.11, written by Peter Selinger 2001-2013
</metadata>
<g transform="translate(0.000000,753.000000) scale(0.100000,-0.100000)"
fill="#000000" stroke="none">
<path d="M0 3765 l0 -3625 3765 0 3765 0 0 3625 0 3625 -3765 0 -3765 0 0
-3625z m2090 1679 c347 -60 681 -279 880 -576 99 -148 153 -270 196 -442 35
-141 44 -379 19 -527 -93 -561 -505 -992 -1066 -1115 -116 -25 -343 -30 -474
-9 -665 104 -1147 664 -1147 1335 0 640 439 1186 1066 1325 163 36 346 39 526
9z m3671 16 c343 -35 618 -167 855 -412 189 -195 313 -436 361 -702 25 -134
22 -362 -6 -493 -58 -278 -176 -498 -371 -694 -193 -194 -418 -316 -690 -375
-112 -24 -353 -29 -470 -10 -444 72 -820 348 -1011 741 -102 212 -134 351
-134 595 0 192 12 273 66 435 166 497 618 859 1145 914 115 12 140 12 255 1z
m-801 -2705 c17 -9 32 -28 39 -47 5 -18 35 -203 66 -412 60 -402 61 -422 14
-446 -26 -15 -72 -12 -96 5 -29 21 -34 43 -79 350 -21 143 -39 262 -41 264 -1
2 -65 -56 -141 -130 -336 -327 -692 -531 -1062 -610 -134 -29 -365 -31 -479
-5 -278 63 -530 212 -761 453 -103 107 -219 252 -235 295 -4 11 13 27 66 58
63 37 73 41 81 26 33 -59 148 -197 243 -291 289 -287 608 -420 923 -386 371
40 740 234 1101 577 56 53 100 98 98 100 -2 3 -125 -14 -272 -36 -285 -43
-312 -43 -335 1 -18 32 -11 79 15 104 13 14 28 25 32 25 4 1 179 27 388 59
209 33 386 59 393 60 7 1 26 -6 42 -14z"/>
</g>
</svg>
